Coordinates
version=1
nRows=19
nColumns=24
inDegrees=yes

Units are S.I. units (second, meters, Newtons, ...)
Angles are in degrees.

endheader
time	pelvis_tilt	pelvis_list	pelvis_rotation	pelvis_tx	pelvis_ty	pelvis_tz	hip_flexion_r	hip_adduction_r	hip_rotation_r	knee_angle_r	ankle_angle_r	subtalar_angle_r	mtp_angle_r	hip_flexion_l	hip_adduction_l	hip_rotation_l	knee_angle_l	ankle_angle_l	subtalar_angle_l	mtp_angle_l	lumbar_extension	lumbar_bending	lumbar_rotation
      1.83400000	      1.20110149	      4.15118542	     -5.63691923	      1.42878166	      1.02190366	      0.26085898	     17.95410399	     -5.55229188	     -1.74918054	    -66.00397376	      2.55651470	     -2.76824484	      8.06329656	     10.22565077	      9.42906286	     -1.02088906	    -16.87087393	      7.19577140	     -9.07172317	      3.07126353	      1.22321915	     -7.69547791	      4.85193605
      1.83816667	      1.26513239	      4.06160857	     -5.38537167	      1.43314456	      1.02258329	      0.26028716	     18.40254052	     -5.42590385	     -1.82137416	    -65.49665441	      2.86381215	     -2.87379833	      8.18329470	      9.76507518	      9.43400491	     -0.71470120	    -16.67355715	      7.26165181	     -9.08419034	      3.05124525	      1.02382127	     -7.63284689	      4.63461773
      1.84233333	      1.37571497	      3.97511823	     -5.16371942	      1.43763104	      1.02334858	      0.25973747	     18.77729081	     -5.30885074	     -1.87505499	    -64.92756811	      3.10625591	     -3.01647436	      8.33189236	      9.21799859	      9.44369192	     -0.42043073	    -16.41023720	      7.29693502	     -9.14701345	      3.01978674	      0.80567661	     -7.54761363	      4.30774685
      1.84650000	      1.45529611	      3.89082079	     -4.91985995	      1.44201384	      1.02401901	      0.25916327	     19.17980396	     -5.19730276	     -1.94768260	    -64.32570185	      3.33575643	     -3.22248566	      8.45676389	      8.72457306	      9.45115591	     -0.10649103	    -16.18076725	      7.34913201	     -9.19233304	      2.98929621	      0.60607021	     -7.46919026	      4.05218862
      1.85066667	      1.49522747	      3.79073823	     -4.66413048	      1.44641769	      1.02460169	      0.25858197	     19.60220846	     -5.06972801	     -2.03675033	    -63.67608351	      3.54860890	     -3.48014734	      8.53059600	      8.28823078	      9.43158860	      0.18956995	    -15.98629199	      7.41443742	     -9.21986789	      2.96810388	      0.44572071	     -7.38210103	      3.86239279
      1.85483333	      1.59822707	      3.71966428	     -4.44039173	      1.45081399	      1.02524846	      0.25802391	     19.95315027	     -4.97825272	     -2.09557275	    -62.98984089	      3.70239794	     -3.77097896	      8.62786970	      7.75444861	      9.44877916	      0.50106000	    -15.71137612	      7.43063032	     -9.32521158	      2.93223322	      0.23214094	     -7.30356955	      3.52312812
      1.85900000	      1.65328130	      3.61956279	     -4.19000768	      1.45523297	      1.02582481	      0.25743970	     20.32398902	     -4.85912288	     -2.18556467	    -62.24251461	      3.85864051	     -4.09092806	      8.70093197	      7.29129191	      9.42626202	      0.81730269	    -15.49472240	      7.48480242	     -9.38066446	      2.90027168	      0.06730406	     -7.20171028	      3.26294240
      1.86316667	      1.69557961	      3.54151424	     -3.94888062	      1.45959532	      1.02631168	      0.25687531	     20.70990404	     -4.76138261	     -2.25919406	    -61.47596233	      4.00618298	     -4.43058493	      8.75899422	      6.84762571	      9.42205464	      1.12857034	    -15.27055376	      7.51630206	     -9.46696342	      2.86701816	     -0.08331046	     -7.11996264	      3.01471983
      1.86733333	      1.74519492	      3.44458426	     -3.67537359	      1.46393465	      1.02679621	      0.25626971	     21.06026592	     -4.65745606	     -2.36994920	    -60.66086196	      4.16737549	     -4.76638717	      8.78384696	      6.41433731	      9.39446639	      1.44014703	    -15.09383612	      7.58374773	     -9.50235024	      2.84731185	     -0.26294949	     -7.02512768	      2.82601927
      1.87150000	      1.80047050	      3.37062541	     -3.45956743	      1.46833642	      1.02727957	      0.25574518	     21.39696192	     -4.56174851	     -2.42022370	    -59.80185087	      4.21626504	     -5.16321476	      8.80282835	      5.94147453	      9.38689913	      1.74600690	    -14.83768361	      7.59337039	     -9.62065307	      2.80917147	     -0.40810476	     -6.93629301	      2.51293673
      1.87566667	      1.82295338	      3.30517088	     -3.22063308	      1.47268437	      1.02765470	      0.25518723	     21.75833439	     -4.48501687	     -2.49038836	    -58.92344501	      4.33865096	     -5.51249539	      8.80491877	      5.52297841	      9.38505083	      2.06298404	    -14.61303778	      7.58766984	     -9.74378869	      2.75527708	     -0.53629909	     -6.86752241	      2.24031631
      1.87983333	      1.83869285	      3.22934557	     -2.99283669	      1.47705533	      1.02801035	      0.25465884	     22.11122846	     -4.39022220	     -2.54506941	    -57.99869802	      4.36247356	     -5.87961304	      8.78473248	      5.11896684	      9.36396865	      2.34949037	    -14.41201108	      7.65484570	     -9.81781730	      2.72414726	     -0.64608280	     -6.77748471	      2.04815787
      1.88400000	      1.85776597	      3.15509427	     -2.76792081	      1.48142225	      1.02834186	      0.25413770	     22.44292214	     -4.30026597	     -2.59925870	    -57.03487196	      4.39594041	     -6.23743769	      8.74518731	      4.70790442	      9.34188810	      2.64655417	    -14.20000277	      7.68961275	     -9.90442401	      2.69155361	     -0.76122235	     -6.69124370	      1.82831753
      1.88816667	      1.85916158	      3.09177043	     -2.53812267	      1.48579368	      1.02861094	      0.25362224	     22.77863346	     -4.22327723	     -2.64967206	    -56.04891602	      4.41286413	     -6.57054767	      8.69043136	      4.32318676	      9.32599827	      2.93062437	    -14.00198957	      7.73620207	     -9.98768427	      2.66239004	     -0.85012400	     -6.61700873	      1.61612571
      1.89233333	      1.87042985	      3.03180779	     -2.32540956	      1.49016302	      1.02887017	      0.25313762	     23.09480265	     -4.14717320	     -2.68766967	    -55.02575891	      4.41376348	     -6.89007390	      8.61496117	      3.92745108	      9.31002800	      3.21095967	    -13.79814021	      7.77199696	    -10.07750070	      2.62853133	     -0.95600027	     -6.53927851	      1.40765410
      1.89650000	      1.83929225	      2.97043886	     -2.08871645	      1.49449674	      1.02901967	      0.25263203	     23.44088179	     -4.07496621	     -2.73440057	    -53.98474557	      4.42835146	     -7.15420592	      8.55187830	      3.59890753	      9.28696677	      3.49136597	    -13.64675208	      7.84157969	    -10.12630090	      2.60750029	     -1.02254326	     -6.46526888	      1.25663364
      1.90066667	      1.82149461	      2.93567495	     -1.89090523	      1.49888269	      1.02917354	      0.25220298	     23.76721275	     -4.01429423	     -2.72772991	    -52.91402601	      4.35545118	     -7.46500344	      8.42241657	      3.22908233	      9.28784140	      3.76518076	    -13.42563576	      7.85016597	    -10.24837004	      2.56658293	     -1.08209379	     -6.42319956	      0.99657482
      1.90483333	      1.80468253	      2.89806993	     -1.69075420	      1.50329345	      1.02929185	      0.25176689	     24.07176472	     -3.96139036	     -2.74072145	    -51.81939282	      4.29989403	     -7.69430290	      8.30199395	      2.86683595	      9.28233073	      4.01476914	    -13.23563505	      7.91433042	    -10.33341899	      2.53344711	     -1.13317525	     -6.37939105	      0.82597278
      1.90900000	      1.77069272	      2.85587187	     -1.46934876	      1.50764285	      1.02936258	      0.25132613	     24.38171868	     -3.90666968	     -2.75845350	    -50.69634137	      4.26174350	     -7.87463120	      8.21314266	      2.54540096	      9.26660491	      4.28139992	    -13.08249195	      7.98936991	    -10.36043556	      2.51350195	     -1.19127199	     -6.32010307	      0.69483098
